<?xml version="1.0" standalone="no"?>
<!DOCTYPE svg PUBLIC "-//W3C//DTD SVG 20010904//EN"
 "http://www.w3.org/TR/2001/REC-SVG-20010904/DTD/svg10.dtd">
<svg version="1.0" xmlns="http://www.w3.org/2000/svg"
 width="100.000000pt" height="100.000000pt" viewBox="0 0 100.000000 100.000000"
 preserveAspectRatio="xMidYMid meet">
<metadata>
Created by potrace 1.16, written by Peter Selinger 2001-2019
</metadata>
<g transform="translate(0.000000,100.000000) scale(0.100000,-0.100000)"
fill="#000000" stroke="none">
<path d="M375 907 c-111 -37 -202 -113 -250 -207 -111 -219 -27 -474 190 -581
67 -33 74 -34 185 -34 110 0 118 1 183 33 168 83 266 263 238 439 -22 143
-107 260 -234 323 -61 30 -78 34 -170 37 -67 2 -116 -2 -142 -10z m283 -212
c111 -50 175 -151 151 -238 -28 -104 -152 -189 -284 -195 -180 -9 -335 98
-335 232 0 91 60 163 176 212 83 35 201 31 292 -11z"/>
<path d="M448 699 c-106 -17 -183 -90 -194 -184 -5 -42 -1 -58 23 -105 105
-199 441 -149 470 70 19 137 -131 246 -299 219z m66 -86 c-5 -44 -4 -49 18
-58 12 -5 28 -21 33 -33 9 -22 14 -23 58 -18 42 6 47 5 47 -13 0 -25 -18 -37
-33 -22 -6 6 -23 11 -38 11 -47 0 -42 -62 6 -71 28 -6 26 -43 -2 -47 -16 -2
-23 2 -23 14 0 10 -7 26 -16 35 -13 14 -21 16 -36 8 -17 -9 -19 -17 -13 -55 6
-40 4 -44 -15 -44 -24 0 -38 26 -21 43 17 17 13 45 -9 52 -25 8 -39 0 -50 -31
-6 -14 -18 -24 -30 -24 -29 0 -26 38 4 50 31 11 39 25 31 50 -7 23 -36 26 -65
8 -24 -15 -46 2 -36 27 5 13 14 15 51 10 36 -6 46 -4 51 9 8 20 -12 45 -44 57
-27 10 -27 42 1 47 10 2 20 -5 26 -20 13 -34 33 -48 59 -41 24 6 30 41 11 60
-17 17 -3 43 21 43 19 0 20 -4 14 -47z"/>
</g>
</svg>
